<mxfile host="app.diagrams.net" modified="2020-12-23T09:45:11.019Z" agent="5.0 (Macintosh)" etag="7CbQd1jumcRwlkeSr4q7" version="13.8.2" type="github">
  <diagram id="ntP7JvOqzANHgd1cWCZh" name="Page-1">
    <mxGraphModel dx="1711" dy="1557" grid="0" gridSize="10" guides="1" tooltips="1" connect="1" arrows="1" fold="1" page="0" pageScale="1" pageWidth="1920" pageHeight="1200" background="none" math="0" shadow="0">
      <root>
        <mxCell id="0" />
        <mxCell id="1" parent="0" />
        <mxCell id="e9rv5TIOCtTkFpjBZCT--3" style="edgeStyle=orthogonalEdgeStyle;rounded=0;orthogonalLoop=1;jettySize=auto;html=1;" parent="1" source="8lQDDzoO1rge8He9BItb-4" target="e9rv5TIOCtTkFpjBZCT--6" edge="1">
          <mxGeometry relative="1" as="geometry">
            <mxPoint x="467" y="601" as="targetPoint" />
          </mxGeometry>
        </mxCell>
        <mxCell id="e9rv5TIOCtTkFpjBZCT--8" value="&lt;div&gt;eventBridge.pattern.source:&lt;/div&gt;&lt;div&gt;&lt;b&gt;bankId.collect&lt;/b&gt;&lt;/div&gt;" style="edgeLabel;html=1;align=center;verticalAlign=middle;resizable=0;points=[];fontSize=12;" parent="e9rv5TIOCtTkFpjBZCT--3" vertex="1" connectable="0">
          <mxGeometry x="0.1024" y="-2" relative="1" as="geometry">
            <mxPoint x="-17" y="-24.5" as="offset" />
          </mxGeometry>
        </mxCell>
        <mxCell id="8lQDDzoO1rge8He9BItb-4" value="&lt;font style=&quot;font-size: 16px&quot;&gt;1. Login/BankID&lt;/font&gt;" style="whiteSpace=wrap;html=1;strokeWidth=1;fontSize=18;arcSize=35;" parent="1" vertex="1">
          <mxGeometry x="79" y="561" width="154" height="79" as="geometry" />
        </mxCell>
        <mxCell id="8lQDDzoO1rge8He9BItb-10" value="" style="edgeStyle=orthogonalEdgeStyle;orthogonalLoop=1;jettySize=auto;html=1;fontSize=16;" parent="1" source="8lQDDzoO1rge8He9BItb-6" target="8lQDDzoO1rge8He9BItb-9" edge="1">
          <mxGeometry relative="1" as="geometry" />
        </mxCell>
        <mxCell id="8lQDDzoO1rge8He9BItb-15" value="" style="edgeStyle=orthogonalEdgeStyle;orthogonalLoop=1;jettySize=auto;html=1;fontSize=16;" parent="1" source="8lQDDzoO1rge8He9BItb-6" edge="1">
          <mxGeometry relative="1" as="geometry">
            <mxPoint x="729" y="-102" as="targetPoint" />
          </mxGeometry>
        </mxCell>
        <mxCell id="8lQDDzoO1rge8He9BItb-6" value="Root tag är &#39;expenses&#39;" style="rhombus;whiteSpace=wrap;html=1;strokeWidth=1;fontSize=16;" parent="1" vertex="1">
          <mxGeometry x="604" y="-292" width="250" height="100" as="geometry" />
        </mxCell>
        <mxCell id="8lQDDzoO1rge8He9BItb-9" value="" style="whiteSpace=wrap;html=1;fontSize=16;strokeWidth=1;" parent="1" vertex="1">
          <mxGeometry x="999" y="-272" width="120" height="60" as="geometry" />
        </mxCell>
        <mxCell id="8lQDDzoO1rge8He9BItb-11" value="Nej" style="text;html=1;align=center;verticalAlign=middle;resizable=0;points=[];autosize=1;fontSize=16;" parent="1" vertex="1">
          <mxGeometry x="854" y="-232" width="40" height="20" as="geometry" />
        </mxCell>
        <mxCell id="8lQDDzoO1rge8He9BItb-12" value="Ja" style="text;html=1;align=center;verticalAlign=middle;resizable=0;points=[];autosize=1;fontSize=16;rotation=0;" parent="1" vertex="1">
          <mxGeometry x="734" y="-192" width="30" height="20" as="geometry" />
        </mxCell>
        <mxCell id="8lQDDzoO1rge8He9BItb-16" value="Root tag är &#39;expenses&#39;" style="rhombus;whiteSpace=wrap;html=1;strokeWidth=1;fontSize=16;" parent="1" vertex="1">
          <mxGeometry x="337" y="-184" width="250" height="100" as="geometry" />
        </mxCell>
        <mxCell id="e9rv5TIOCtTkFpjBZCT--6" value="EventBridge" style="ellipse;whiteSpace=wrap;html=1;aspect=fixed;shadow=0;sketch=0;strokeColor=#f0f0f0;fillColor=none;gradientColor=none;fontSize=16;" parent="1" vertex="1">
          <mxGeometry x="548" y="543" width="115" height="115" as="geometry" />
        </mxCell>
        <mxCell id="xtqmrSHsuH9U3KQFKQZr-2" value="" style="outlineConnect=0;fontColor=#232F3E;gradientColor=#F78E04;gradientDirection=north;fillColor=#D05C17;strokeColor=#ffffff;dashed=0;verticalLabelPosition=bottom;verticalAlign=top;align=center;html=1;fontSize=12;fontStyle=0;aspect=fixed;shape=mxgraph.aws4.resourceIcon;resIcon=mxgraph.aws4.lambda;" vertex="1" parent="1">
          <mxGeometry x="909" y="510" width="78" height="78" as="geometry" />
        </mxCell>
        <mxCell id="xtqmrSHsuH9U3KQFKQZr-3" value="" style="outlineConnect=0;fontColor=#232F3E;gradientColor=#F78E04;gradientDirection=north;fillColor=#D05C17;strokeColor=#ffffff;dashed=0;verticalLabelPosition=bottom;verticalAlign=top;align=center;html=1;fontSize=12;fontStyle=0;aspect=fixed;shape=mxgraph.aws4.resourceIcon;resIcon=mxgraph.aws4.lambda;" vertex="1" parent="1">
          <mxGeometry x="1166" y="647" width="78" height="78" as="geometry" />
        </mxCell>
        <mxCell id="xtqmrSHsuH9U3KQFKQZr-14" value="&lt;span style=&quot;&quot;&gt;DynamoDB &lt;font style=&quot;font-size: 16px&quot;&gt;Cases&lt;/font&gt;&lt;/span&gt;" style="shape=image;html=1;verticalAlign=top;verticalLabelPosition=bottom;labelBackgroundColor=none;imageAspect=0;aspect=fixed;image=https://cdn2.iconfinder.com/data/icons/amazon-aws-stencils/100/Database_copy_DynamoDB-128.png;fontSize=16;" vertex="1" parent="1">
          <mxGeometry x="541.5" y="220" width="128" height="128" as="geometry" />
        </mxCell>
        <mxCell id="xtqmrSHsuH9U3KQFKQZr-15" value="VADA (Viva ADApter)" style="shape=mxgraph.cisco.computers_and_peripherals.pc_adapter_card;html=1;pointerEvents=1;dashed=0;fillColor=#036897;strokeColor=#ffffff;strokeWidth=2;verticalLabelPosition=bottom;verticalAlign=top;align=center;outlineConnect=0;labelBackgroundColor=none;fontSize=16;" vertex="1" parent="1">
          <mxGeometry x="573.5" y="845" width="64" height="86" as="geometry" />
        </mxCell>
      </root>
    </mxGraphModel>
  </diagram>
</mxfile>
